<svg width="24" height="24" viewBox="0 0 24 24" fill="none" xmlns="http://www.w3.org/2000/svg">
<path d="M7.99976 9.49585C8.10019 9.49585 8.19773 9.52582 8.28003 9.58081L8.3562 9.64331L11.6462 12.9431L11.9998 13.2976L12.3533 12.9431L15.6208 9.67456C15.6914 9.61601 15.7764 9.57868 15.866 9.56519L15.9597 9.5603C16.054 9.56395 16.1445 9.5939 16.2214 9.64624L16.2937 9.70581C16.3604 9.7725 16.4066 9.85634 16.4275 9.94702L16.4402 10.0398C16.4449 10.163 16.4026 10.2829 16.324 10.3777L12.3474 14.3552C12.2776 14.4244 12.1895 14.4708 12.0945 14.49L11.9978 14.4998H11.9968C11.9312 14.5001 11.8662 14.4874 11.8054 14.4626C11.775 14.4502 11.7458 14.4348 11.7185 14.4167L11.6423 14.3552L7.64331 10.3562C7.54889 10.2617 7.49585 10.1334 7.49585 9.99976C7.49589 9.89955 7.52603 9.80262 7.58081 9.72046L7.64331 9.64331C7.71421 9.57241 7.80423 9.52499 7.90112 9.50562L7.99976 9.49585Z" fill="#A098AE" stroke="#A098AE"/>
</svg>
